<svg version="1.1" id="brand" xmlns="http://www.w3.org/2000/svg" xmlns:xlink="http://www.w3.org/1999/xlink" x="0px" y="0px"
	 width="100%" viewBox="0 0 1024 1024" enable-background="new 0 0 1024 1024" xml:space="preserve">
<path fill="#160A1E" opacity="1.000000" stroke="none"
	d="
M593.000000,1025.000000
	C395.333344,1025.000000 198.166672,1025.000000 1.000000,1025.000000
	C1.000000,683.666687 1.000000,342.333344 1.000000,1.000000
	C342.333344,1.000000 683.666687,1.000000 1025.000000,1.000000
	C1025.000000,342.333344 1025.000000,683.666687 1025.000000,1025.000000
	C881.166687,1025.000000 737.333313,1025.000000 593.000000,1025.000000
M530.738647,531.918335
	C530.816772,542.947083 530.894958,553.975830 530.721802,565.912598
	C530.310425,579.264404 529.899048,592.616272 529.172546,606.659241
	C525.908997,616.748413 520.020081,625.227417 512.355469,633.186218
	C502.848816,642.625916 491.166473,647.010986 477.248169,647.708313
	C455.472351,647.391907 438.990570,638.333374 428.738647,618.663452
	C428.014679,617.274292 425.677887,615.960938 424.063843,615.927612
	C415.091949,615.742126 406.111664,615.963318 396.354919,615.926636
	C395.570648,615.959839 394.786377,615.992981 393.070404,615.908081
	C387.407379,615.906372 381.738098,616.066650 376.083374,615.849304
	C371.918701,615.689148 370.788513,617.391724 370.754669,621.436768
	C370.616821,637.911621 374.278168,653.488586 381.310150,668.278625
	C386.973724,680.190308 393.481598,691.575806 404.284851,700.674805
	C414.925751,711.969543 428.000214,719.615845 442.739624,726.034729
	C452.837219,728.541321 462.934814,731.047974 473.858124,733.823608
	C482.904541,733.889282 491.950989,733.955017 501.870850,734.131104
	C512.603455,731.583191 523.336060,729.035217 534.810913,726.296448
	C545.675903,721.913452 556.123108,716.844666 564.924866,707.813477
	C571.033569,701.775757 577.142273,695.738037 583.845581,689.320557
	C589.181091,679.867065 594.516602,670.413574 600.315857,660.417297
	C602.747620,651.268311 605.179382,642.119385 607.958313,632.240723
	C608.495422,615.486877 609.032532,598.733093 609.746338,581.059814
	C609.686279,573.030762 609.626221,565.001770 609.747803,556.055237
	C609.706238,548.028992 609.664734,540.002747 609.812988,531.059631
	C609.799500,522.035645 609.785950,513.011719 609.970276,503.137573
	C609.907715,501.398590 609.845154,499.659576 609.996399,497.159424
	C609.649048,493.014099 609.301697,488.868805 609.685486,483.999603
	C609.767517,481.988586 609.849487,479.977570 610.120667,477.227722
	C610.067139,474.159698 610.013672,471.091644 610.149902,467.107941
	C610.093018,462.738708 610.036133,458.369476 610.170776,453.210388
	C610.170776,445.150726 610.170776,437.091064 610.170776,428.935181
	C591.239380,427.029663 573.201660,427.259399 555.506165,433.011017
	C551.944336,434.168762 548.029419,434.240234 543.790039,434.246948
	C540.589661,432.092346 540.967712,429.530579 543.428772,427.298828
	C546.083557,424.891388 549.102173,422.885132 552.671448,420.579498
	C567.808472,413.506927 583.747620,411.310120 600.284912,412.742126
	C613.101562,413.851959 624.991211,410.686462 636.061768,404.479889
	C644.362488,399.826202 651.826965,394.128204 656.238770,384.433624
	C658.407715,377.258057 660.576599,370.082520 663.046021,362.589233
	C662.677002,362.197174 662.308044,361.805084 661.019348,361.272461
	C617.854980,361.272461 574.690613,361.272461 531.450623,361.272461
	C531.450623,369.685242 531.450623,377.316895 531.234375,385.866608
	C531.297241,390.893524 531.360107,395.920441 531.208130,401.869720
	C531.208130,412.908112 531.208130,423.946503 531.208130,434.876160
	C535.442993,435.362854 539.169250,435.791107 542.951111,437.056854
	C544.524475,443.015045 540.573669,444.972443 536.081360,446.519257
	C533.361755,447.455658 530.663208,448.232666 530.712891,452.026978
	C530.878357,464.677979 530.920044,477.330597 530.788635,490.901398
	C530.859009,502.934265 530.929321,514.967163 530.763245,527.778320
	C530.829468,528.853699 530.895630,529.929138 530.738647,531.918335
z"/>
<path fill="#45E7FA" opacity="1.000000" stroke="none"
	d="
M609.782593,497.920593
	C609.845154,499.659576 609.907715,501.398590 609.461426,503.561279
	C606.576965,503.223602 603.382080,503.184235 601.966003,501.577332
	C595.410583,494.138916 588.838196,486.613831 583.262817,478.443573
	C578.252136,471.100861 570.722046,469.303345 563.269775,466.859894
	C559.599792,465.656586 557.945801,467.263702 557.993652,471.028381
	C558.057190,476.020599 558.009583,481.014252 558.007568,486.434753
	C558.002014,488.573547 557.998535,490.284882 557.633850,492.064148
	C553.238037,493.274658 549.309021,495.931091 544.989502,492.547485
	C544.121704,483.258545 542.700745,474.417084 542.596436,465.560089
	C542.535095,460.351044 543.402100,454.429169 545.973145,450.083038
	C548.691711,445.487549 553.623352,441.945770 558.163635,438.764923
	C561.733337,436.264069 566.040039,433.992096 570.263062,433.421387
	C578.609802,432.293365 587.122986,432.183655 595.571777,432.098206
	C601.224976,432.041016 606.334717,437.878784 607.108154,443.652130
	C607.578979,447.166626 608.990295,450.555145 609.979248,454.000244
	C610.036133,458.369476 610.093018,462.738708 609.834717,467.891876
	C609.656860,471.772736 609.794189,474.869629 609.931519,477.966553
	C609.849487,479.977570 609.767517,481.988586 609.323730,484.648865
	C609.235474,489.505615 609.509033,493.713104 609.782593,497.920593
z"/>
<path fill="#11FAF4" opacity="1.000000" stroke="none"
	d="
M531.450623,384.948517
	C531.450623,377.316895 531.450623,369.685242 531.450623,361.272461
	C574.690613,361.272461 617.854980,361.272461 661.476196,361.568665
	C662.203857,362.212250 662.474670,362.559601 662.745544,362.906982
	C660.576599,370.082520 658.407715,377.258057 655.531372,384.694641
	C613.699524,384.953278 572.575073,384.950897 531.450623,384.948517
z"/>
<path fill="#01E0E2" opacity="1.000000" stroke="none"
	d="
M531.342529,385.407562
	C572.575073,384.950897 613.699524,384.953278 655.275330,384.951660
	C651.826965,394.128204 644.362488,399.826202 636.061768,404.479889
	C624.991211,410.686462 613.101562,413.851959 600.284912,412.742126
	C583.747620,411.310120 567.808472,413.506927 552.335327,420.251434
	C552.649292,415.638611 550.223267,412.755890 546.991882,410.921204
	C543.672546,409.036652 539.293518,408.691589 539.189941,403.423279
	C539.180603,402.949219 537.312561,402.401245 536.249084,402.084381
	C534.667847,401.613220 533.034302,401.317657 531.422974,400.947357
	C531.360107,395.920441 531.297241,390.893524 531.342529,385.407562
z"/>
<path fill="#419CC5" opacity="1.000000" stroke="none"
	d="
M397.134247,616.045349
	C406.111664,615.963318 415.091949,615.742126 424.063843,615.927612
	C425.677887,615.960938 428.014679,617.274292 428.738647,618.663452
	C438.990570,638.333374 455.472351,647.391907 477.718414,648.212524
	C481.021545,652.867004 485.049469,650.333313 488.595306,650.671570
	C490.903473,650.891785 494.750610,651.240051 495.140839,652.434753
	C496.670471,657.118225 501.229645,657.825500 504.001404,660.667297
	C505.531616,662.236267 506.041382,664.800598 506.657898,667.009705
	C502.221313,668.702637 498.137970,670.302063 493.600220,671.904663
	C485.103790,672.250000 477.061768,672.592102 468.645081,672.787537
	C465.488739,672.241760 462.554962,672.276184 459.953430,671.363525
	C451.573944,668.424072 443.316895,665.135498 434.778625,661.739502
	C430.274323,658.397522 425.831238,655.507263 421.766479,652.157837
	C410.080780,642.528503 403.272278,629.499023 397.134247,616.045349
z"/>
<path fill="#214791" opacity="1.000000" stroke="none"
	d="
M396.744568,615.985962
	C403.272278,629.499023 410.080780,642.528503 421.766479,652.157837
	C425.831238,655.507263 430.274323,658.397522 434.601746,662.038452
	C434.204041,663.450745 433.256592,664.394531 433.372498,665.181763
	C434.277374,671.328003 435.163116,677.493103 436.492645,683.556396
	C437.961884,690.257080 441.154297,696.830200 441.291016,703.506104
	C441.443451,710.949951 447.070923,718.304932 442.020172,725.844604
	C428.000214,719.615845 414.925751,711.969543 404.133362,699.943359
	C403.688232,693.179749 403.561127,687.132935 403.031555,681.121582
	C402.761536,678.056702 401.600189,675.081299 401.130493,672.021179
	C398.275238,653.418152 394.874756,634.882080 394.002106,616.026184
	C394.786377,615.992981 395.570648,615.959839 396.744568,615.985962
z"/>
<path fill="#47BBDA" opacity="1.000000" stroke="none"
	d="
M609.569641,581.979248
	C609.032532,598.733093 608.495422,615.486877 607.444824,632.578003
	C604.957153,631.115967 602.382874,629.657776 601.127563,627.449829
	C598.057312,622.049561 595.414795,616.382141 592.926880,610.679688
	C586.953064,596.987854 577.498535,585.694702 568.067322,574.413513
	C565.595154,571.456360 562.644958,568.419250 558.011353,568.545532
	C557.997437,562.714172 557.991394,557.352051 557.988647,551.522339
	C558.007935,543.049011 558.023926,535.043274 558.433350,527.032104
	C560.529785,527.516113 562.675720,527.516235 563.855530,528.583923
	C567.898621,532.242737 572.144592,535.880066 575.332642,540.242188
	C584.221375,552.404480 592.441833,565.055908 601.362000,577.193848
	C603.082642,579.535095 606.782715,580.421631 609.569641,581.979248
z"/>
<path fill="#3C82B0" opacity="1.000000" stroke="none"
	d="
M564.426941,708.256897
	C556.123108,716.844666 545.675903,721.913452 534.368835,725.948486
	C533.151855,720.198425 532.855652,714.670532 531.477600,709.426880
	C529.851624,703.239685 526.102661,697.432556 525.400879,691.220459
	C524.230835,680.862915 519.783508,671.692444 517.190430,661.661987
	C520.989868,658.771240 524.646362,656.217590 528.201416,653.529785
	C530.534973,651.765503 532.721863,649.807251 535.261475,648.117859
	C538.958801,652.948486 542.994080,657.270752 545.632935,662.322449
	C549.586304,669.890381 552.090820,678.220520 556.108887,685.747498
	C558.903198,690.982117 560.989502,696.018127 561.190796,702.017029
	C561.261780,704.130859 563.291504,706.178833 564.426941,708.256897
z"/>
<path fill="#285495" opacity="1.000000" stroke="none"
	d="
M442.379883,725.939697
	C447.070923,718.304932 441.443451,710.949951 441.291016,703.506104
	C441.154297,696.830200 437.961884,690.257080 436.492645,683.556396
	C435.163116,677.493103 434.277374,671.328003 433.372498,665.181763
	C433.256592,664.394531 434.204041,663.450745 434.835754,662.280518
	C443.316895,665.135498 451.573944,668.424072 459.953430,671.363525
	C462.554962,672.276184 465.488739,672.241760 468.665344,673.210571
	C470.039856,683.784729 470.948486,693.796753 472.035614,703.789490
	C472.443298,707.537170 473.734253,711.232239 473.793854,714.964600
	C473.892731,721.155640 473.321381,727.357361 473.032379,733.554626
	C462.934814,731.047974 452.837219,728.541321 442.379883,725.939697
z"/>
<path fill="#44A1C7" opacity="1.000000" stroke="none"
	d="
M599.852112,660.960083
	C594.516602,670.413574 589.181091,679.867065 583.457764,689.093994
	C577.985046,677.457153 573.149231,665.927063 567.734619,654.675537
	C563.574768,646.031555 558.814270,637.664001 554.005981,629.355774
	C553.105286,627.799500 550.715393,627.105103 549.073303,625.651611
	C550.413269,621.852844 551.692688,618.415466 553.048279,614.604736
	C554.421997,608.160095 555.719543,602.088806 557.395508,596.018250
	C559.492798,596.851013 561.776428,597.241028 562.833435,598.591248
	C567.582336,604.657593 572.784973,610.574707 576.337280,617.327698
	C583.183411,630.342346 588.947876,643.922852 595.384888,657.159790
	C596.167847,658.769897 598.329468,659.709656 599.852112,660.960083
z"/>
<path fill="#3571A5" opacity="1.000000" stroke="none"
	d="
M517.004333,661.942200
	C519.783508,671.692444 524.230835,680.862915 525.400879,691.220459
	C526.102661,697.432556 529.851624,703.239685 531.477600,709.426880
	C532.855652,714.670532 533.151855,720.198425 533.997681,726.043945
	C523.336060,729.035217 512.603455,731.583191 501.462250,733.653992
	C502.217896,724.263550 503.228577,715.390137 500.157471,706.580688
	C496.248383,695.367493 493.817200,683.860657 494.054626,671.901489
	C498.137970,670.302063 502.221313,668.702637 507.004578,666.954224
	C510.804413,665.184143 513.904358,663.563171 517.004333,661.942200
z"/>
<path fill="#4192BB" opacity="1.000000" stroke="none"
	d="
M549.012756,626.013000
	C550.715393,627.105103 553.105286,627.799500 554.005981,629.355774
	C558.814270,637.664001 563.574768,646.031555 567.734619,654.675537
	C573.149231,665.927063 577.985046,677.457153 583.160461,689.283813
	C577.142273,695.738037 571.033569,701.775757 564.675903,708.035156
	C563.291504,706.178833 561.261780,704.130859 561.190796,702.017029
	C560.989502,696.018127 558.903198,690.982117 556.108887,685.747498
	C552.090820,678.220520 549.586304,669.890381 545.632935,662.322449
	C542.994080,657.270752 538.958801,652.948486 535.408691,647.834106
	C536.180237,645.913940 537.091553,644.459412 538.288086,642.826172
	C542.053162,637.102661 545.532959,631.557861 549.012756,626.013000
z"/>
<path fill="#2F619C" opacity="1.000000" stroke="none"
	d="
M493.600220,671.904663
	C493.817200,683.860657 496.248383,695.367493 500.157471,706.580688
	C503.228577,715.390137 502.217896,724.263550 501.025513,733.598816
	C491.950989,733.955017 482.904541,733.889282 473.445251,733.689087
	C473.321381,727.357361 473.892731,721.155640 473.793854,714.964600
	C473.734253,711.232239 472.443298,707.537170 472.035614,703.789490
	C470.948486,693.796753 470.039856,683.784729 469.040039,673.357300
	C477.061768,672.592102 485.103790,672.250000 493.600220,671.904663
z"/>
<path fill="#1B3D8D" opacity="1.000000" stroke="none"
	d="
M393.536255,615.967163
	C394.874756,634.882080 398.275238,653.418152 401.130493,672.021179
	C401.600189,675.081299 402.761536,678.056702 403.031555,681.121582
	C403.561127,687.132935 403.688232,693.179749 403.969116,699.655151
	C393.481598,691.575806 386.973724,680.190308 381.310150,668.278625
	C374.278168,653.488586 370.616821,637.911621 370.754669,621.436768
	C370.788513,617.391724 371.918701,615.689148 376.083374,615.849304
	C381.738098,616.066650 387.407379,615.906372 393.536255,615.967163
z"/>
<path fill="#46AFD2" opacity="1.000000" stroke="none"
	d="
M600.083984,660.688721
	C598.329468,659.709656 596.167847,658.769897 595.384888,657.159790
	C588.947876,643.922852 583.183411,630.342346 576.337280,617.327698
	C572.784973,610.574707 567.582336,604.657593 562.833435,598.591248
	C561.776428,597.241028 559.492798,596.851013 557.388672,595.563110
	C557.343201,587.071533 557.682983,579.035767 558.019043,570.669067
	C558.016663,569.897034 558.017944,569.455872 558.019226,569.014771
	C562.644958,568.419250 565.595154,571.456360 568.067322,574.413513
	C577.498535,585.694702 586.953064,596.987854 592.926880,610.679688
	C595.414795,616.382141 598.057312,622.049561 601.127563,627.449829
	C602.382874,629.657776 604.957153,631.115967 607.271240,632.942810
	C605.179382,642.119385 602.747620,651.268311 600.083984,660.688721
z"/>
<path fill="#46DDF4" opacity="1.000000" stroke="none"
	d="
M558.009766,486.007294
	C558.009583,481.014252 558.057190,476.020599 557.993652,471.028381
	C557.945801,467.263702 559.599792,465.656586 563.269775,466.859894
	C570.722046,469.303345 578.252136,471.100861 583.262817,478.443573
	C588.838196,486.613831 595.410583,494.138916 601.966003,501.577332
	C603.382080,503.184235 606.576965,503.223602 609.362427,503.986389
	C609.785950,513.011719 609.799500,522.035645 609.340881,531.516479
	C606.597717,531.164368 603.739868,530.956848 602.171936,529.427124
	C598.336975,525.685608 594.833435,521.525757 591.675842,517.185486
	C585.536438,508.746552 582.161621,498.174713 573.229553,491.943848
	C568.784790,488.843201 564.764221,483.598053 558.009766,486.007294
z"/>
<path fill="#47D3ED" opacity="1.000000" stroke="none"
	d="
M558.007568,486.434753
	C564.764221,483.598053 568.784790,488.843201 573.229553,491.943848
	C582.161621,498.174713 585.536438,508.746552 591.675842,517.185486
	C594.833435,521.525757 598.336975,525.685608 602.171936,529.427124
	C603.739868,530.956848 606.597717,531.164368 609.245972,531.974976
	C609.664734,540.002747 609.706238,548.028992 609.302734,556.507568
	C605.164124,554.349915 600.701904,552.376709 597.916138,549.014465
	C588.229004,537.322571 578.935852,525.287842 569.894836,513.085571
	C566.595825,508.632935 563.107666,507.081787 558.009399,508.543457
	C558.001221,502.715149 557.998169,497.355713 557.995117,491.996246
	C557.998535,490.284882 558.002014,488.573547 558.007568,486.434753
z"/>
<path fill="#34E7F9" opacity="1.000000" stroke="none"
	d="
M610.074951,453.605316
	C608.990295,450.555145 607.578979,447.166626 607.108154,443.652130
	C606.334717,437.878784 601.224976,432.041016 595.571777,432.098206
	C587.122986,432.183655 578.609802,432.293365 570.263062,433.421387
	C566.040039,433.992096 561.733337,436.264069 558.163635,438.764923
	C553.623352,441.945770 548.691711,445.487549 545.973145,450.083038
	C543.402100,454.429169 542.535095,460.351044 542.596436,465.560089
	C542.700745,474.417084 544.121704,483.258545 544.703918,492.722351
	C542.963745,495.047089 541.509033,496.755981 540.045349,498.475464
	C536.956116,495.571930 533.982666,492.777252 531.009216,489.982574
	C530.920044,477.330597 530.878357,464.677979 530.712891,452.026978
	C530.663208,448.232666 533.361755,447.455658 536.081360,446.519257
	C540.573669,444.972443 544.524475,443.015045 543.128906,436.380310
	C543.630249,435.406677 543.953735,435.109619 544.277283,434.812531
	C548.029419,434.240234 551.944336,434.168762 555.506165,433.011017
	C573.201660,427.259399 591.239380,427.029663 610.170776,428.935181
	C610.170776,437.091064 610.170776,445.150726 610.074951,453.605316
z"/>
<path fill="#48C9E5" opacity="1.000000" stroke="none"
	d="
M558.014648,509.012329
	C563.107666,507.081787 566.595825,508.632935 569.894836,513.085571
	C578.935852,525.287842 588.229004,537.322571 597.916138,549.014465
	C600.701904,552.376709 605.164124,554.349915 609.211914,556.966309
	C609.626221,565.001770 609.686279,573.030762 609.657959,581.519531
	C606.782715,580.421631 603.082642,579.535095 601.362000,577.193848
	C592.441833,565.055908 584.221375,552.404480 575.332642,540.242188
	C572.144592,535.880066 567.898621,532.242737 563.855530,528.583923
	C562.675720,527.516235 560.529785,527.516113 558.420776,526.649780
	C558.002930,525.509521 557.990967,524.746094 557.980896,523.517639
	C557.993408,518.372498 558.004028,513.692444 558.014648,509.012329
z"/>
<path fill="#47BBDA" opacity="1.000000" stroke="none"
	d="
M558.022705,571.000061
	C557.682983,579.035767 557.343201,587.071533 557.010254,595.562378
	C555.719543,602.088806 554.421997,608.160095 552.635803,614.610229
	C546.372864,612.734375 540.593994,610.491211 534.826904,608.217834
	C533.030640,607.509766 531.266479,606.720276 529.487610,605.968079
	C529.899048,592.616272 530.310425,579.264404 531.201599,565.520020
	C534.155212,566.312256 536.521118,568.089294 539.124390,568.564026
	C545.364502,569.701782 551.716125,570.227356 558.022705,571.000061
z"/>
<path fill="#46AFD2" opacity="1.000000" stroke="none"
	d="
M529.330078,606.313660
	C531.266479,606.720276 533.030640,607.509766 534.826904,608.217834
	C540.593994,610.491211 546.372864,612.734375 552.559692,614.983643
	C551.692688,618.415466 550.413269,621.852844 549.073303,625.651611
	C545.532959,631.557861 542.053162,637.102661 537.898315,642.820435
	C535.271240,642.269287 533.322754,641.535278 531.365967,640.824280
	C529.895691,640.289978 528.175049,639.019226 526.978333,639.393921
	C520.255127,641.498596 516.816284,636.960510 513.006958,633.016968
	C520.020081,625.227417 525.908997,616.748413 529.330078,606.313660
z"/>
<path fill="#44A1C7" opacity="1.000000" stroke="none"
	d="
M512.681213,633.101562
	C516.816284,636.960510 520.255127,641.498596 526.978333,639.393921
	C528.175049,639.019226 529.895691,640.289978 531.365967,640.824280
	C533.322754,641.535278 535.271240,642.269287 537.613098,642.999146
	C537.091553,644.459412 536.180237,645.913940 535.121704,647.652222
	C532.721863,649.807251 530.534973,651.765503 528.201416,653.529785
	C524.646362,656.217590 520.989868,658.771240 517.190430,661.661987
	C513.904358,663.563171 510.804413,665.184143 507.357788,666.860718
	C506.041382,664.800598 505.531616,662.236267 504.001404,660.667297
	C501.229645,657.825500 496.670471,657.118225 495.140839,652.434753
	C494.750610,651.240051 490.903473,650.891785 488.595306,650.671570
	C485.049469,650.333313 481.021545,652.867004 478.099060,648.343384
	C491.166473,647.010986 502.848816,642.625916 512.681213,633.101562
z"/>
<path fill="#46DDF4" opacity="1.000000" stroke="none"
	d="
M558.009460,508.543457
	C558.004028,513.692444 557.993408,518.372498 557.559082,523.522766
	C554.434082,523.182800 551.766479,522.214844 549.017639,521.627563
	C547.597351,521.324158 545.558228,521.107300 544.615601,521.866089
	C540.584290,525.111267 536.543579,527.923706 530.999695,527.000000
	C530.929321,514.967163 530.859009,502.934265 530.898926,490.441986
	C533.982666,492.777252 536.956116,495.571930 540.045349,498.475464
	C541.509033,496.755981 542.963745,495.047089 544.704041,493.163330
	C549.309021,495.931091 553.238037,493.274658 557.633911,492.064148
	C557.998169,497.355713 558.001221,502.715149 558.009460,508.543457
z"/>
<path fill="#48C9E5" opacity="1.000000" stroke="none"
	d="
M558.019104,570.669067
	C551.716125,570.227356 545.364502,569.701782 539.124390,568.564026
	C536.521118,568.089294 534.155212,566.312256 531.327271,565.065979
	C530.894958,553.975830 530.816772,542.947083 531.191284,531.527039
	C534.204712,534.076599 536.764954,537.017944 539.326294,539.958313
	C544.386292,545.767151 550.627686,549.744263 557.985352,551.989990
	C557.991394,557.352051 557.997437,562.714172 558.011353,568.545532
	C558.017944,569.455872 558.016663,569.897034 558.019104,570.669067
z"/>
<path fill="#47D3ED" opacity="1.000000" stroke="none"
	d="
M557.988647,551.522339
	C550.627686,549.744263 544.386292,545.767151 539.326294,539.958313
	C536.764954,537.017944 534.204712,534.076599 531.302856,531.070129
	C530.895630,529.929138 530.829468,528.853699 530.881470,527.389160
	C536.543579,527.923706 540.584290,525.111267 544.615601,521.866089
	C545.558228,521.107300 547.597351,521.324158 549.017639,521.627563
	C551.766479,522.214844 554.434082,523.182800 557.557129,523.987793
	C557.990967,524.746094 558.002930,525.509521 558.027466,526.655273
	C558.023926,535.043274 558.007935,543.049011 557.988647,551.522339
z"/>
<path fill="#04C7CF" opacity="1.000000" stroke="none"
	d="
M544.033691,434.529724
	C543.953735,435.109619 543.630249,435.406677 543.101135,435.961548
	C539.169250,435.791107 535.442993,435.362854 531.208130,434.876160
	C531.208130,423.946503 531.208130,412.908112 531.315552,401.408539
	C533.034302,401.317657 534.667847,401.613220 536.249084,402.084381
	C537.312561,402.401245 539.180603,402.949219 539.189941,403.423279
	C539.293518,408.691589 543.672546,409.036652 546.991882,410.921204
	C550.223267,412.755890 552.649292,415.638611 551.980713,420.313599
	C549.102173,422.885132 546.083557,424.891388 543.428772,427.298828
	C540.967712,429.530579 540.589661,432.092346 544.033691,434.529724
z"/>
<path fill="#34E7F9" opacity="1.000000" stroke="none"
	d="
M609.889465,497.540009
	C609.509033,493.713104 609.235474,489.505615 608.958130,485.010803
	C609.301697,488.868805 609.649048,493.014099 609.889465,497.540009
z"/>
<path fill="#34E7F9" opacity="1.000000" stroke="none"
	d="
M610.026123,477.597137
	C609.794189,474.869629 609.656860,471.772736 609.739868,468.349731
	C610.013672,471.091644 610.067139,474.159698 610.026123,477.597137
z"/>
<path fill="#04C7CF" opacity="1.000000" stroke="none"
	d="
M662.895752,362.748108
	C662.474670,362.559601 662.203857,362.212250 661.936035,361.638947
	C662.308044,361.805084 662.677002,362.197174 662.895752,362.748108
z"/>
</svg>